<?xml version="1.0" encoding="UTF-8"?><svg id="Layer_1" xmlns="http://www.w3.org/2000/svg" viewBox="0 0 300 300"><defs><style>.cls-1{fill:#0b1e33;stroke-width:0px;}</style></defs><path class="cls-1" d="M289.21,91.25L208.75,10.79c-4.49-4.49-11.76-4.49-16.26,0l-26.82,26.82c-2.16,2.16-3.37,5.08-3.37,8.13,0,3.05,1.21,5.97,3.37,8.13l5.28,5.28L21.9,208.2c-9.33,9.33-14.48,21.75-14.48,34.95,0,13.2,5.14,25.61,14.48,34.95,9.33,9.33,21.75,14.48,34.95,14.48,13.2,0,25.61-5.14,34.95-14.48l149.05-149.05,5.28,5.28c2.16,2.16,5.08,3.37,8.13,3.37,3.05,0,5.97-1.21,8.13-3.37l26.82-26.82c4.49-4.49,4.49-11.77,0-16.25ZM75.54,261.84c-4.99,4.99-11.63,7.74-18.69,7.74-7.06,0-13.7-2.75-18.69-7.74-4.99-4.99-7.74-11.63-7.74-18.69,0-7.06,2.75-13.7,7.74-18.69l92.44-92.44,37.39,37.39-92.44,92.43ZM184.23,153.15l-37.39-37.39,40.36-40.36,37.39,37.39-40.36,40.36ZM254.26,109.94l-64.21-64.21,10.57-10.57,64.21,64.21-10.57,10.57Z"/></svg>