<?xml version="1.0" encoding="UTF-8"?><svg id="Layer_1" xmlns="http://www.w3.org/2000/svg" viewBox="0 0 300 300"><defs><style>.cls-1{fill:#bde100;}.cls-1,.cls-2{stroke-width:0px;}.cls-2{fill:#0b1e33;}</style></defs><circle class="cls-1" cx="150" cy="150" r="146.27"/><path class="cls-2" d="M221.83,102.14h0c-7.68-7.68-20.12-7.68-27.8,0l-62.58,62.58-25.47-25.47c-7.68-7.68-20.12-7.68-27.8,0h0c-7.68,7.68-7.68,20.12,0,27.8l39.03,39.03c.11.12.21.24.32.35h0c3.84,3.84,8.88,5.76,13.92,5.76,5.04,0,10.07-1.91,13.92-5.76h0c.11-.11.21-.24.32-.35l76.14-76.14c7.68-7.68,7.68-20.12,0-27.8Z"/></svg>