<?xml version="1.0" encoding="UTF-8"?><svg id="Layer_1" xmlns="http://www.w3.org/2000/svg" viewBox="0 0 300 300"><defs><style>.cls-1{fill:#ffe8e9;}.cls-1,.cls-2{stroke-width:0px;}.cls-2{fill:#fc6164;}</style></defs><circle class="cls-1" cx="150" cy="149.73" r="146.55"/><path class="cls-2" d="M177.85,149.73l31.83-31.83c7.69-7.69,7.69-20.16,0-27.85h0c-7.69-7.69-20.16-7.69-27.85,0l-31.83,31.83-31.83-31.83c-7.69-7.69-20.16-7.69-27.85,0h0c-7.69,7.69-7.69,20.16,0,27.85l31.83,31.83-31.83,31.83c-7.69,7.69-7.69,20.16,0,27.85h0c7.69,7.69,20.16,7.69,27.85,0l31.83-31.83,31.83,31.83c7.69,7.69,20.16,7.69,27.85,0,7.69-7.69,7.69-20.16,0-27.85l-31.83-31.83Z"/></svg>