<?xml version="1.0" encoding="UTF-8"?><svg id="Layer_1" xmlns="http://www.w3.org/2000/svg" viewBox="0 0 300 300"><defs><style>.cls-1{fill:#0b1e33;stroke-width:0px;}</style></defs><path class="cls-1" d="M268.45,147.35c-11.86-21.52-24.7-42.22-38.21-61.59,13.21-17.6,24.33-30.67,35.85-42.17,4.47-4.46,6.39-10.45,5.15-16.04-1.19-5.38-5.04-9.59-10.56-11.61-7.35-2.64-15.4-5.05-24.63-7.33-3.81-.94-7.74-1.39-11.68-1.83l-5.08-.6-18.36.04-3.5.36c-2.87.27-5.73.54-8.56,1.04l-2.05.37c-14.9,2.66-29.8,5.32-44.65,8.25l-4.83.96c-14.61,2.93-28.41,5.69-42.67,6.25-15.99.59-29.9-1.6-42.5-6.83-4.93-2.07-10.03-2.12-14.35-.14-4.02,1.84-7.03,5.29-8.48,9.72-.76,2.37-.88,4.67-.89,6.46l-.06,243.54c0,8.09,4.18,14.18,11.77,17.14l31.14.5,1.27-.49c7.85-3.02,11.81-9.28,11.76-18.57-.11-23.92-.1-47.85-.08-71.77v-20.66c15.06-.24,36.87-2.54,53.96-5.89l9.24-1.82c14.1-2.79,28.19-5.58,42.35-8.06,13.93-2.44,27.28-2.42,39.67.14,5.28,1.07,10.48,2.77,15.98,4.56l4.15,1.34c5.93,1.89,12.13.67,16.56-3.23,4.25-3.76,6.14-9.46,5.06-15.25-.51-2.72-1.72-4.89-2.77-6.79ZM221.39,44.91c-7.81,9.78-15.63,19.57-23.39,29.42-7.19,9.16-4.03,16.53-.47,21.93,7.93,12.02,15.8,24.08,23.68,36.14-10.94-.96-21.69-.57-32.07,1.14-10.35,1.7-20.67,3.7-30.97,5.69-8.53,1.64-17.05,3.3-25.6,4.77-10.75,1.87-23.51,3.93-36.58,5.15-11.49,1.09-23.15-.1-34.74-3.52l.05-92.08c6.36.99,12.64,1.94,18.95,2.47,18.29,1.53,36.03-1.23,50.99-4.17,6.43-1.24,12.86-2.57,19.28-3.89,10.41-2.14,20.81-4.27,31.26-6.15,16.83-2.99,30.57-3.63,43.52-1.79l-3.9,4.88Z"/></svg>