<?xml version="1.0" encoding="UTF-8"?><svg id="Layer_1" xmlns="http://www.w3.org/2000/svg" viewBox="0 0 300 300"><defs><style>.cls-1{fill:#fff;}.cls-1,.cls-2{stroke-width:0px;}.cls-2{fill:#0b1e33;}</style></defs><path class="cls-2" d="M245.08,296.78H54.63c-.41-.08-.83-.21-1.24-.25-5.81-.44-11.28-2.08-16.26-5.06-13.39-8.04-20.18-19.99-20.2-35.57-.06-61.77-.03-123.55,0-185.32,0-2.23.19-4.49.51-6.7,2.64-18.07,17.96-32.31,36.18-33.51,4.9-.32,9.82-.15,14.74-.2.56,0,1.11,0,1.84,0,0-.7,0-1.21,0-1.73,0-3.96-.06-7.93.02-11.89.15-7.97,7.27-13.98,15.15-12.86,6.67.94,11.28,6.27,11.43,13.32.08,3.82.02,7.64.02,11.46,0,.51,0,1.02,0,1.7.76,0,1.32,0,1.88,0,34.32,0,68.64,0,102.95.03,1.39,0,1.9-.27,1.86-1.79-.11-4.15-.13-8.31,0-12.46.25-7.4,7.35-13.29,14.69-12.32,7.07.94,11.79,6.36,11.87,13.7.04,3.72,0,7.45.01,11.17,0,.51.05,1.02.08,1.67.69,0,1.25,0,1.81,0,4.91.06,9.84-.11,14.74.21,17.65,1.16,32.81,14.88,35.91,32.33.34,1.91.56,3.85.83,5.77v190.2c-.09.46-.22.92-.26,1.39-1.17,16.28-13.23,30.95-29.01,35.08-2.98.78-6.07,1.1-9.11,1.63ZM150.29,136.76c-34.98,0-69.96,0-104.94-.03-1.43,0-1.85.34-1.84,1.81.08,8.02.04,16.04.04,24.06,0,31.12,0,62.24,0,93.36,0,8.35,5.61,14.12,13.79,14.13,61.8.02,123.6.02,185.4-.04,2.04,0,4.25-.41,6.1-1.25,5.46-2.49,7.9-7,7.9-12.97-.02-39-.01-78-.01-116.99q0-2.07-2.08-2.08c-34.79,0-69.58,0-104.37,0ZM230.08,57.01c0,.77,0,1.53,0,2.28-.05,4.25.17,8.52-.24,12.73-.6,6.24-6.03,11.06-12.26,11.4-7.62.42-13.84-5.22-14.07-12.87-.12-4.1-.07-8.21-.02-12.31.01-1.09-.25-1.48-1.42-1.48-34.6.03-69.2.03-103.8,0-1.1,0-1.49.27-1.47,1.44.05,4.25.11,8.5-.04,12.74-.25,6.76-5.85,12.22-12.6,12.49-7.7.31-13.8-5.51-13.94-13.36-.07-3.87-.01-7.73-.02-11.6,0-.51-.04-1.02-.07-1.62-.59-.03-1.05-.07-1.52-.07-3.72,0-7.45-.02-11.17,0-8.19.04-13.87,5.69-13.89,13.87-.02,12.6,0,25.2,0,37.81,0,.51,0,1.02,0,1.68h2.04c69.68,0,139.36,0,209.04,0q2.11,0,2.11-2.04c0-12.22,0-24.44,0-36.66,0-.86-.03-1.72-.1-2.57-.52-5.95-4.98-11.17-10.9-11.76-5.09-.5-10.27-.1-15.64-.1Z"/><path class="cls-1" d="M245.08,296.78c3.04-.53,6.14-.85,9.11-1.63,15.77-4.13,27.83-18.79,29.01-35.08.03-.47.17-.93.26-1.39v38.1h-38.38Z"/><path class="cls-2" d="M150.08,216.8c7.37-.03,13.31,5.84,13.36,13.2.05,7.38-5.96,13.44-13.32,13.43-7.3,0-13.28-6-13.29-13.31,0-7.37,5.88-13.28,13.24-13.31Z"/><path class="cls-2" d="M190.14,230.06c.02-7.38,5.91-13.26,13.29-13.26,7.43,0,13.33,5.95,13.29,13.4-.04,7.31-6.06,13.27-13.37,13.23-7.31-.04-13.24-6.03-13.22-13.37Z"/><path class="cls-2" d="M96.9,216.8c7.44.03,13.3,5.99,13.24,13.45-.06,7.24-6.03,13.17-13.27,13.18-7.37,0-13.37-6.04-13.31-13.43.05-7.38,5.97-13.23,13.35-13.21Z"/><path class="cls-2" d="M150.14,190.09c-7.31,0-13.32-6.01-13.3-13.31.01-7.33,5.98-13.28,13.31-13.28,7.4,0,13.33,5.98,13.3,13.42-.02,7.17-6.08,13.16-13.31,13.16Z"/><path class="cls-2" d="M96.85,163.5c7.35,0,13.26,5.91,13.3,13.28.04,7.27-5.99,13.3-13.3,13.31-7.3,0-13.33-6.04-13.29-13.31.04-7.38,5.95-13.28,13.3-13.28Z"/><path class="cls-2" d="M203.46,190.09c-7.3.02-13.35-6-13.33-13.28.02-7.37,5.92-13.29,13.27-13.31,7.4-.02,13.34,5.95,13.33,13.39-.01,7.21-6.01,13.17-13.27,13.2Z"/></svg>