<?xml version="1.0" encoding="UTF-8"?><svg id="Layer_1" xmlns="http://www.w3.org/2000/svg" viewBox="0 0 300 300"><defs><style>.cls-1{fill:#0b1e33;stroke-width:0px;}</style></defs><path class="cls-1" d="M209.6,14.32h-73.04c-36.43,0-66.11,29.68-66.11,66.11h-4.29C29.68,80.43,0,110.11,0,146.53v73.04c0,36.43,29.68,66.11,66.17,66.11h72.98c36.49,0,66.11-29.68,66.11-66.11h4.35c36.43,0,66.11-29.68,66.11-66.11v-73.04c0-36.42-29.68-66.11-66.11-66.11ZM244.2,153.47c0,19.1-15.57,34.6-34.6,34.6h-4.35v-41.53c0-36.43-29.62-66.11-66.11-66.11h-37.18c0-19.09,15.5-34.6,34.6-34.6h73.04c19.03,0,34.6,15.5,34.6,34.6v73.04ZM173.74,219.57c0,19.03-15.5,34.6-34.6,34.6h-72.98c-19.09,0-34.66-15.57-34.66-34.6v-73.04c0-19.1,15.57-34.6,34.66-34.6h72.98c19.1,0,34.6,15.5,34.6,34.6v73.04Z"/></svg>