<?xml version="1.0" encoding="UTF-8"?><svg id="Layer_1" xmlns="http://www.w3.org/2000/svg" viewBox="0 0 300 300"><defs><style>.cls-1{fill:#fbc169;stroke-width:0px;}</style></defs><path class="cls-1" d="M300,25.93c-24.57-11.78-52.09-18.4-81.11-18.4C115.16,7.53,30.75,91.92,30.75,195.65c0,38.57,11.67,74.47,31.68,104.35h33.56c-23.95-28.14-38.4-64.58-38.4-104.35,0-62.46,35.75-116.62,87.79-143.42,3,43.44,29.64,82.03,69.87,100.02,1.78.79,3.62,1.18,5.46,1.18,5.12,0,10.02-2.98,12.25-7.95,3.02-6.77-.02-14.69-6.77-17.71-33.35-14.91-54.66-48.15-54.27-84.69l.02-1.74c9.02-2.74,18.4-4.67,28.02-5.8,2.74,27.72,19.92,52.15,45.73,63.7,1.78.79,3.64,1.16,5.46,1.16,5.14,0,10.02-2.96,12.25-7.92,3.04-6.77,0-14.71-6.77-17.73-16.39-7.32-27.57-22.55-29.92-40.01,26.62,1.28,51.58,9.04,73.29,21.72v-30.52Z"/><path class="cls-1" d="M186.53,224.09c0-25.76-20.96-46.72-46.72-46.72s-46.72,20.96-46.72,46.72c0,7.41,6.01,13.41,13.41,13.41s13.41-6,13.41-13.41c0-10.97,8.93-19.9,19.9-19.9s19.9,8.93,19.9,19.9c0,7.41,6,13.41,13.41,13.41s13.41-6,13.41-13.41Z"/><path class="cls-1" d="M300,177.38v26.82c-10.92.06-19.79,8.97-19.79,19.9,0,7.41-6,13.41-13.41,13.41s-13.41-6-13.41-13.41c0-25.72,20.9-46.65,46.61-46.71Z"/><path class="cls-1" d="M248.74,261.56h-59.71c-7.41,0-13.41,6-13.41,13.41s6,13.41,13.41,13.41h59.71c7.41,0,13.41-6,13.41-13.41s-6-13.41-13.41-13.41Z"/></svg>