<?xml version="1.0" encoding="UTF-8"?><svg id="Layer_1" xmlns="http://www.w3.org/2000/svg" viewBox="0 0 300 300"><defs><style>.cls-1{fill:#f5a201;stroke-width:0px;}</style></defs><path class="cls-1" d="M150,1.76C68.26,1.76,1.76,68.26,1.76,150s66.5,148.24,148.24,148.24,148.24-66.51,148.24-148.24S231.74,1.76,150,1.76ZM150,273.29c-67.98,0-123.29-55.31-123.29-123.29,0-46.67,26.08-87.37,64.43-108.29,3.37,33.27,24.17,62.59,55.19,76.46,1.63.72,3.33,1.08,5.08,1.08,4.92,0,9.39-2.9,11.4-7.38,2.81-6.28-.02-13.67-6.29-16.49-25.1-11.22-41.14-36.2-40.94-63.67,5.77-1.68,11.72-2.91,17.81-3.73,2.86,21.37,16.54,40.02,36.61,48.99,1.61.72,3.32,1.08,5.09,1.08,4.92,0,9.39-2.9,11.4-7.38,1.36-3.04,1.45-6.44.27-9.55-1.19-3.11-3.52-5.58-6.56-6.93-11.29-5.05-19.14-15.22-21.55-27.02,63.96,4.46,114.67,57.78,114.67,122.85s-55.31,123.29-123.29,123.29Z"/><path class="cls-1" d="M126.92,172.1c0-21.15-17.21-38.36-38.36-38.36s-38.36,17.21-38.36,38.36c0,6.88,5.6,12.48,12.48,12.48s12.48-5.6,12.48-12.48c0-7.39,6.01-13.41,13.4-13.41s13.4,6.02,13.4,13.41c0,6.88,5.6,12.48,12.48,12.48s12.48-5.6,12.48-12.48Z"/><path class="cls-1" d="M213.12,133.74c-21.15,0-38.36,17.21-38.36,38.36,0,6.88,5.6,12.48,12.48,12.48s12.48-5.6,12.48-12.48c0-7.39,6.01-13.41,13.4-13.41s13.4,6.02,13.4,13.41c0,6.88,5.6,12.48,12.48,12.48s12.48-5.6,12.48-12.48c0-21.15-17.21-38.36-38.36-38.36Z"/><path class="cls-1" d="M173.2,199.16h-46.4c-6.88,0-12.48,5.6-12.48,12.48s5.6,12.48,12.48,12.48h46.4c6.88,0,12.48-5.6,12.48-12.48s-5.6-12.48-12.48-12.48Z"/></svg>