<?xml version="1.0" encoding="UTF-8"?><svg id="Layer_1" xmlns="http://www.w3.org/2000/svg" viewBox="0 0 300 300"><defs><style>.cls-1{fill:#ccc;stroke-width:0px;}</style></defs><path class="cls-1" d="M259.45,294.98h-5.09c-10.83-10.87-21.66-21.73-32.5-32.59-.11-.11-.35-.08-.07-.02-47.88,29.62-95.3,29.57-142.51.24-10.97,10.76-21.97,21.56-32.98,32.37h-.57c-1.14-.41-2.28-.81-3.41-1.23-5.01-1.85-8.88-4.86-10.44-10.25-.56-1.94-.42-3.51,1.25-5.06,3.59-3.33,6.96-6.89,10.43-10.35,6.39-6.38,12.79-12.76,19.34-19.3-16.63-16.58-27.97-36-33.67-58.63-5.67-22.54-5.11-44.94,1.64-67.17,6.79-22.35,19.03-41.28,36.45-56.78,48.01-42.72,121.24-41.63,167.72,1.34,50.29,46.5,55.55,129.88,2.92,181.29.69.73,1.37,1.48,2.09,2.2,9.12,9.14,18.28,18.23,27.31,27.45.97.99,1.7,2.75,1.65,4.11-.23,6.31-3.4,10.56-9.57,12.38ZM244.07,159.43c-.32-51.86-42.17-93.6-93.78-93.53-51.69.07-93.81,41.96-93.63,93.63.19,52.74,42.39,93.75,93.88,93.63,51.65-.12,93.19-41.34,93.53-93.73Z"/><path class="cls-1" d="M275.88,91.67c-14.95-31.42-38.72-53.23-71.34-65.36,15.83-18.56,47.51-22.46,68.53-3.21,21.24,19.45,19.85,51.08,2.81,68.57Z"/><path class="cls-1" d="M24.62,87.2c-12.15-14.48-16.2-30.54-10.31-48.19C20.46,20.61,33.66,9.41,52.85,6.24c16.86-2.78,31.24,2.71,43.56,15.17-33.03,12.28-56.79,34.07-71.8,65.78Z"/><path class="cls-1" d="M137.36,175.44c-.05-1.09-.12-1.92-.12-2.75,0-26.56-.01-53.13,0-79.69,0-7.13,3.41-11.97,9.49-13.67,7.55-2.1,15.19,2.98,16.1,10.76.19,1.58.23,3.19.23,4.79,0,17.05,0,34.1-.02,51.15,0,1.1,0,2.2,0,3.61,1.45,0,2.56,0,3.67,0,17.9,0,35.8-.03,53.7.02,7.2.02,12.29,4.43,13.3,11.3.96,6.49-3.67,12.99-10.14,14.18-1.29.24-2.62.38-3.93.38-26.66.02-53.32.02-79.98.01-.65,0-1.3-.06-2.3-.1Z"/></svg>